<svg width="100" height="100" viewBox="0 0 100 100" fill="none" xmlns="http://www.w3.org/2000/svg">
<mask id="mask0_42_13" style="mask-type:alpha" maskUnits="userSpaceOnUse" x="0" y="0" width="100" height="100">
<rect width="100" height="100" fill="#D9D9D9"/>
</mask>
<g mask="url(#mask0_42_13)">
<path d="M49.9999 91.6666C44.7915 91.6666 39.9131 90.677 35.3645 88.6978C30.8159 86.7187 26.8575 84.045 23.4895 80.677C20.1214 77.3089 17.4478 73.3506 15.4686 68.802C13.4895 64.2534 12.4999 59.3749 12.4999 54.1666C12.4999 48.9582 13.4895 44.0798 15.4686 39.5312C17.4478 34.9825 20.1214 31.0242 23.4895 27.6561C26.8575 24.2881 30.8159 21.6145 35.3645 19.6353C39.9131 17.6561 44.7915 16.6666 49.9999 16.6666C55.2082 16.6666 60.0867 17.6561 64.6353 19.6353C69.1839 21.6145 73.1423 24.2881 76.5103 27.6561C79.8784 31.0242 82.552 34.9825 84.5311 39.5312C86.5103 44.0798 87.4999 48.9582 87.4999 54.1666C87.4999 59.3749 86.5103 64.2534 84.5311 68.802C82.552 73.3506 79.8784 77.3089 76.5103 80.677C73.1423 84.045 69.1839 86.7187 64.6353 88.6978C60.0867 90.677 55.2082 91.6666 49.9999 91.6666ZM61.6666 71.6666L67.4999 65.8332L54.1665 52.4999V33.3332H45.8332V55.8332L61.6666 71.6666ZM23.3332 9.79156L29.1665 15.6249L11.4582 33.3332L5.62488 27.4999L23.3332 9.79156ZM76.6666 9.79156L94.3749 27.4999L88.5416 33.3332L70.8332 15.6249L76.6666 9.79156ZM49.9999 83.3332C58.1249 83.3332 65.0172 80.5034 70.677 74.8437C76.3367 69.1839 79.1666 62.2916 79.1666 54.1666C79.1666 46.0416 76.3367 39.1492 70.677 33.4895C65.0172 27.8298 58.1249 24.9999 49.9999 24.9999C41.8749 24.9999 34.9825 27.8298 29.3228 33.4895C23.6631 39.1492 20.8332 46.0416 20.8332 54.1666C20.8332 62.2916 23.6631 69.1839 29.3228 74.8437C34.9825 80.5034 41.8749 83.3332 49.9999 83.3332Z" fill="#1C1B1F"/>
</g>
</svg>
